<svg xmlns="http://www.w3.org/2000/svg" xmlns:xlink="http://www.w3.org/1999/xlink" width="500" zoomAndPan="magnify" viewBox="0 0 375 225" height="300" preserveAspectRatio="xMidYMid meet" version="1.0"><defs><clipPath id="64a0233663"><path d="M 18.75 0 L 244 0 L 244 225 L 18.75 225 Z M 18.75 0 " clip-rule="nonzero"/></clipPath></defs><path fill="#ff6d00" d="M 178.6875 48.78125 L 130.054688 8.132812 L 24.167969 112.546875 L 78.429688 168.074219 Z M 178.6875 48.78125 " fill-opacity="1" fill-rule="nonzero"/><g clip-path="url(#64a0233663)"><path fill="#e6e6e6" d="M 149.003906 30.644531 L 142.082031 23.738281 C 135.222656 16.867188 126.964844 16.746094 119.265625 24.453125 L 113.785156 29.941406 C 106.078125 37.640625 106.203125 45.886719 113.0625 52.757812 L 119.980469 59.65625 C 126.839844 66.542969 135.097656 66.664062 142.796875 58.964844 L 148.277344 53.46875 C 155.988281 45.765625 155.863281 37.515625 148.996094 30.644531 Z M 114.328125 65.3125 L 107.398438 58.414062 C 100.542969 51.546875 92.292969 51.417969 84.597656 59.128906 L 79.109375 64.621094 C 71.40625 72.316406 71.523438 80.554688 78.386719 87.433594 L 100.582031 109.621094 C 103.148438 112.171875 106.03125 111.792969 108.003906 109.828125 C 109.972656 107.855469 110.308594 105.019531 107.75 102.457031 L 102.644531 97.363281 C 104.03125 97.070312 105.738281 96.011719 107.75 94 L 113.605469 88.132812 C 121.324219 80.4375 121.1875 72.195312 114.328125 65.316406 Z M 86.816406 108.40625 L 72.117188 93.710938 C 65.242188 86.839844 57.003906 86.714844 49.296875 94.417969 L 43.804688 99.898438 C 36.101562 107.605469 36.222656 115.855469 43.09375 122.722656 L 57.789062 137.433594 C 60.355469 139.996094 63.234375 139.613281 65.207031 137.65625 C 67.171875 135.675781 67.511719 132.816406 64.941406 130.273438 L 50.375 115.691406 C 47.617188 112.9375 47.699219 110.335938 50.804688 107.238281 L 56.625 101.421875 C 59.71875 98.316406 62.324219 98.226562 65.082031 100.996094 L 79.648438 115.566406 C 82.199219 118.128906 85.054688 117.789062 87.023438 115.820312 C 88.996094 113.839844 89.371094 110.96875 86.816406 108.40625 Z M 236.871094 126.9375 L 145.6875 218.113281 C 136.507812 227.300781 125.976562 227.300781 116.804688 218.113281 L 25.636719 126.945312 C 16.453125 117.765625 16.453125 107.242188 25.636719 98.0625 L 116.8125 6.886719 C 125.992188 -2.300781 136.515625 -2.300781 145.691406 6.886719 L 236.863281 98.054688 C 246.050781 107.226562 246.050781 117.757812 236.875 126.929688 Z M 135.058594 31.019531 C 132.285156 28.253906 129.691406 28.335938 126.597656 31.445312 L 120.773438 37.261719 C 117.683594 40.351562 117.59375 42.957031 120.363281 45.710938 L 127.015625 52.371094 C 129.777344 55.148438 132.371094 55.0625 135.476562 51.953125 L 141.292969 46.128906 C 144.382812 43.042969 144.472656 40.433594 141.710938 37.679688 Z M 107.039062 72.359375 C 109.804688 75.117188 109.714844 77.722656 106.617188 80.8125 L 100.796875 86.632812 C 97.6875 89.738281 95.109375 89.820312 92.339844 87.050781 L 85.679688 80.386719 C 82.921875 77.632812 82.996094 75.03125 86.09375 71.9375 L 91.910156 66.113281 C 95.019531 63.007812 97.613281 62.933594 100.378906 65.695312 L 107.039062 72.355469 Z M 107.039062 72.359375 " fill-opacity="1" fill-rule="nonzero"/></g><path fill="#ff6d00" d="M 134.066406 98.054688 C 124.886719 107.234375 124.886719 117.761719 134.066406 126.9375 L 225.242188 218.113281 C 234.421875 227.300781 244.945312 227.300781 254.132812 218.113281 L 345.300781 126.945312 C 354.480469 117.765625 354.472656 107.234375 345.300781 98.058594 L 254.132812 6.890625 C 244.945312 -2.296875 234.421875 -2.296875 225.25 6.890625 L 134.066406 98.058594 " fill-opacity="1" fill-rule="evenodd"/><path fill="#fffffe" d="M 182.753906 108.226562 C 178.476562 107.207031 177.128906 106.792969 177.128906 104.929688 C 177.128906 102.367188 180.746094 101.984375 182.90625 101.984375 C 184.886719 101.984375 187.359375 102.441406 189.542969 103.210938 C 190.101562 103.402344 190.65625 103.566406 191.210938 103.566406 C 192.757812 103.566406 193.472656 102.382812 193.972656 101.222656 L 194.304688 100.414062 C 194.488281 99.917969 194.664062 99.367188 194.664062 98.792969 C 194.664062 97.515625 193.855469 96.480469 192.4375 95.957031 C 189.050781 94.675781 185.492188 94.410156 183.097656 94.410156 C 173.699219 94.410156 168.3125 98.414062 168.3125 105.394531 C 168.3125 113.15625 174.738281 114.59375 181.546875 116.105469 L 181.664062 116.132812 C 185.425781 116.96875 187.234375 117.464844 187.234375 119.527344 C 187.234375 120.273438 187.234375 122.542969 180.992188 122.542969 C 178.496094 122.542969 175.894531 122.058594 173.035156 121.050781 C 172.496094 120.84375 171.941406 120.722656 171.363281 120.695312 C 169.824219 120.695312 169.105469 121.878906 168.613281 123.035156 L 168.207031 123.980469 C 167.988281 124.5 167.871094 125.039062 167.847656 125.605469 C 167.847656 126.886719 168.660156 127.917969 170.0625 128.433594 C 172.882812 129.554688 176.542969 130.121094 180.925781 130.121094 C 190.675781 130.121094 196.050781 126.195312 196.050781 119.066406 C 196.050781 111.308594 189.589844 109.808594 182.753906 108.226562 Z M 257.519531 109.78125 L 235.023438 95.621094 C 234.585938 95.347656 234.113281 95.203125 233.597656 95.191406 C 233.082031 95.175781 232.597656 95.292969 232.148438 95.542969 C 231.695312 95.792969 231.339844 96.140625 231.078125 96.585938 C 230.816406 97.027344 230.6875 97.507812 230.6875 98.023438 L 230.6875 126.335938 C 230.6875 126.851562 230.816406 127.332031 231.078125 127.777344 C 231.339844 128.21875 231.695312 128.566406 232.148438 128.816406 C 232.597656 129.066406 233.082031 129.183594 233.597656 129.171875 C 234.113281 129.15625 234.585938 129.015625 235.023438 128.742188 L 257.523438 114.578125 C 257.726562 114.453125 257.910156 114.300781 258.074219 114.125 C 258.238281 113.953125 258.378906 113.761719 258.496094 113.550781 C 258.609375 113.339844 258.699219 113.121094 258.757812 112.886719 C 258.816406 112.65625 258.847656 112.421875 258.847656 112.179688 C 258.847656 111.941406 258.816406 111.707031 258.757812 111.472656 C 258.699219 111.242188 258.609375 111.019531 258.496094 110.8125 C 258.378906 110.601562 258.238281 110.410156 258.074219 110.234375 C 257.910156 110.0625 257.726562 109.910156 257.523438 109.78125 Z M 224.679688 124.183594 C 224.371094 122.75 223.617188 122.082031 222.289062 122.082031 C 221.984375 122.082031 221.359375 122.152344 220.976562 122.214844 C 220.296875 122.304688 219.714844 122.347656 219.257812 122.347656 C 215.808594 122.347656 213.675781 121.265625 213.675781 115.894531 L 213.675781 102.78125 L 221.371094 102.78125 C 223.675781 102.78125 224.75 101.699219 224.75 99.390625 L 224.75 98.464844 C 224.75 96.152344 223.675781 95.070312 221.367188 95.070312 L 213.671875 95.070312 L 213.671875 90.144531 C 213.671875 87.828125 212.597656 86.75 210.289062 86.75 L 208.183594 86.75 C 205.867188 86.75 204.792969 87.832031 204.792969 90.144531 L 204.792969 95.070312 L 202.835938 95.070312 C 200.527344 95.070312 199.453125 96.152344 199.453125 98.464844 L 199.453125 99.390625 C 199.453125 101.703125 200.527344 102.78125 202.835938 102.78125 L 204.792969 102.78125 L 204.792969 116.695312 C 204.792969 125.730469 209.132812 130.125 218.070312 130.125 C 219.773438 130.125 221.371094 129.871094 222.574219 129.652344 C 224.238281 129.351562 225.148438 128.363281 225.148438 126.863281 C 225.148438 126.53125 225.046875 125.988281 224.941406 125.445312 L 224.679688 124.1875 Z M 314.027344 125.441406 L 313.757812 124.183594 C 313.460938 122.75 312.699219 122.082031 311.371094 122.082031 C 310.933594 122.097656 310.496094 122.144531 310.0625 122.214844 C 309.378906 122.304688 308.800781 122.347656 308.339844 122.347656 C 304.894531 122.347656 302.757812 121.265625 302.757812 115.894531 L 302.757812 102.78125 L 310.453125 102.78125 C 312.761719 102.78125 313.835938 101.699219 313.835938 99.390625 L 313.835938 98.464844 C 313.835938 96.152344 312.757812 95.070312 310.449219 95.070312 L 302.753906 95.070312 L 302.753906 90.144531 C 302.753906 87.828125 301.683594 86.75 299.371094 86.75 L 297.265625 86.75 C 294.949219 86.75 293.875 87.832031 293.875 90.144531 L 293.875 95.070312 L 291.921875 95.070312 C 289.609375 95.070312 288.535156 96.152344 288.535156 98.464844 L 288.535156 99.390625 C 288.535156 101.703125 289.613281 102.78125 291.921875 102.78125 L 293.875 102.78125 L 293.875 116.695312 C 293.875 125.730469 298.21875 130.125 307.152344 130.125 C 308.859375 130.125 310.453125 129.871094 311.660156 129.652344 C 313.316406 129.351562 314.234375 128.363281 314.234375 126.863281 C 314.234375 126.53125 314.128906 125.992188 314.027344 125.445312 Z M 284.753906 97.667969 C 284.753906 97.984375 284.683594 98.675781 284.617188 99.019531 L 284.484375 99.679688 C 284.070312 101.601562 283.453125 102.710938 281.503906 102.710938 C 281.101562 102.710938 280.578125 102.667969 279.976562 102.613281 C 279.015625 102.511719 278.050781 102.457031 277.085938 102.445312 C 275.617188 102.445312 273.617188 102.613281 272.226562 102.988281 L 272.226562 126.070312 C 272.226562 128.378906 271.152344 129.460938 268.84375 129.460938 L 266.730469 129.460938 C 264.421875 129.460938 263.34375 128.378906 263.34375 126.066406 L 263.34375 99.980469 C 263.34375 97.777344 264.335938 96.472656 266.46875 95.878906 C 271.507812 94.46875 276.628906 94.066406 281.824219 94.675781 C 283.6875 94.902344 284.753906 95.988281 284.753906 97.667969 Z M 284.753906 97.667969 " fill-opacity="1" fill-rule="evenodd"/></svg>